<?xml version="1.0" encoding="utf-8"?>
<!DOCTYPE svg PUBLIC "-//W3C//DTD SVG 1.0//EN" "http://www.w3.org/TR/2001/REC-SVG-20010904/DTD/svg10.dtd">
<svg version="1.0" xmlns="http://www.w3.org/2000/svg" width="1000px" height="1000px" viewBox="0 0 1000 1000" preserveAspectRatio="xMidYMid meet">
 <g fill="#ffffff">
  <path d="M468 996.9 c-75.8 -5.3 -150.9 -28.1 -215.5 -65.3 -83 -47.9 -152.2 -121 -195.5 -206.6 -35.9 -71 -53.3 -144.4 -53.3 -224.5 0 -80.5 17.2 -152.9 53.3 -224.5 73.6 -145.6 214 -246 375.5 -268.4 30.2 -4.2 71.8 -5.7 101 -3.7 127.8 9 242 63.1 330.2 156.4 70.3 74.4 116.7 171.7 130.2 273.3 3.5 26.2 4.4 44 3.8 76.9 -0.5 32.1 -1.7 45.3 -6.3 73 -21.4 128.7 -94.4 245.2 -201.7 321.9 -21.2 15.2 -40.3 26.6 -66.2 39.6 -61.1 30.7 -123.2 47.5 -192 52 -18 1.1 -46.4 1.1 -63.5 -0.1z m105 -165.9 c33.2 -2 61.3 -5.9 89 -12.5 16.9 -4.1 40.1 -11.5 48 -15.3 l5.5 -2.7 0.3 -31.1 c0.2 -24.9 0 -31.3 -1.1 -31.7 -0.7 -0.3 -7.8 1.8 -15.7 4.5 -31.7 10.8 -68.5 18.8 -108 23.4 -18.3 2.1 -68.2 3 -88.5 1.5 -41 -3 -65.2 -6.9 -146 -23.6 -14.8 -3 -34.6 -6.7 -44 -8.1 -21.1 -3.1 -51 -4.3 -66.5 -2.5 -19.7 2.3 -43.1 9.6 -46.6 14.5 -2.1 3.1 -2.1 62.4 0 63.2 0.8 0.3 7.7 -0.8 15.3 -2.5 32.1 -7.2 51.9 -9.2 78.5 -7.9 20.4 1 37.2 3.5 76.3 11.3 61.8 12.5 98.1 17.5 143.5 19.8 13.9 0.8 45 0.6 60 -0.3z m-5 -89.5 c33.4 -3.9 77 -12.8 128 -26.1 10.2 -2.7 18 -5.3 18.8 -6.2 0.9 -1.3 1.2 -38.5 1.2 -178.6 0 -175.9 0 -177.1 -2 -180.4 -3.6 -5.8 -12.4 -7.9 -18.7 -4.4 -4 2.1 -292.7 378.6 -292 380.6 0.7 1.7 1.2 1.8 27.7 6 23.8 3.8 56.8 8 73.5 9.5 17 1.4 48.8 1.2 63.5 -0.4z m-36.7 -230.5 c158 -206.2 169.8 -221.8 176.9 -233.5 7.6 -12.7 7.3 -9 7.6 -76.2 0.3 -67 0.5 -64.5 -6.4 -67.8 -4.7 -2.2 -9.6 -1.5 -14.9 2.3 -2.7 1.9 -72.2 91.7 -221.2 286.2 -119.5 155.8 -217.3 283.6 -217.3 284 0 0.4 6.9 1 15.3 1.3 17.9 0.8 47.8 4.5 73.7 9.2 10.2 1.8 20.3 3.2 22.5 3.2 l4 -0.2 159.8 -208.5z"/>
 </g>
</svg>