<svg preserveAspectRatio="xMidYMid meet" viewBox="15.337278106508876 17.244 876.1420118343195 879.4440000000001" xmlns="http://www.w3.org/2000/svg" version="1.0" style="max-height: 500px" width="876.1420118343195" height="879.4440000000001">
 <g fill="#000000">
  <path d="M76.75 825.45 c-0.15 -0.40 -0.20 -167.85 -0.15 -372.20 l0.15 -371.50 371.90 -0.15 371.85 -0.10 0 372 0 372 -369.10 0 c-203.05 0 -370.35 0.15 -371.75 0.30 -2 0.25 -2.70 0.15 -2.90 -0.35z m698.75 -371.70 l0 -326.75 -326.75 0 -326.75 0 0 326.75 0 326.75 326.75 0 326.75 0 0 -326.75z"/>
  <path d="M307.25 631.50 c-22.90 -1.20 -43.05 -4.80 -56.95 -10.20 -1.80 -0.70 -4.80 -1.90 -6.65 -2.60 -1.90 -0.75 -6.45 -2.85 -10.15 -4.75 -18.05 -9.10 -32 -22 -41.80 -38.70 -4.80 -8.20 -9.70 -22.15 -11.70 -33.50 -1.10 -6 -2.45 -18.85 -2.50 -23.35 l0 -2.40 36.65 0 36.70 0 0.60 4.40 c1.40 9.90 5.55 20 10.70 25.85 11.90 13.70 31.15 21.25 54 21.25 21.65 0 37.50 -5.55 48.85 -17 6.95 -7.05 9.70 -13.10 10.35 -22.55 0.25 -4.15 0.15 -5.25 -0.85 -8.25 -1.35 -4.10 -3.50 -8.15 -5.90 -11.10 -5.65 -6.90 -22.85 -15.35 -41.10 -20.15 -2.05 -0.55 -5.80 -1.55 -8.30 -2.20 -2.50 -0.65 -11.30 -2.90 -19.50 -5 -30.50 -7.75 -35.80 -9.25 -44.70 -12.70 -18.95 -7.20 -35.40 -17.35 -46.40 -28.50 -11.15 -11.35 -17.95 -24.65 -20.60 -40.55 -0.90 -5.20 -1.10 -8.30 -1.05 -18.25 0 -10.55 0.15 -12.85 1.25 -19 0.70 -3.85 1.45 -7.65 1.75 -8.50 0.25 -0.80 1 -3.20 1.60 -5.25 1.45 -4.90 5.10 -12.60 8.70 -18.50 7.45 -12 18.60 -23.10 32 -31.80 4.65 -3 14.95 -8.25 19.75 -10.05 1.50 -0.60 4.80 -1.85 7.35 -2.85 6.75 -2.60 21.05 -6 31.90 -7.55 8.80 -1.30 10.75 -1.40 26.25 -1.40 18.70 -0.05 26.45 0.60 38.65 3.20 7.15 1.50 18.45 4.60 21.10 5.75 0.85 0.35 3.30 1.35 5.50 2.20 7.80 3 22.60 11.75 28.75 16.95 11.05 9.30 21.90 22.80 26.10 32.40 0.55 1.35 1.45 3.35 1.95 4.50 2.50 5.55 4.80 13.40 6 20.40 0.70 4.35 1.95 16.80 1.95 20.15 0 0.45 -7.60 0.60 -36.45 0.60 l-36.45 0 -0.35 -3.10 c-0.20 -1.75 -0.95 -5.05 -1.75 -7.40 -5.40 -16.35 -18.50 -26.60 -39.35 -30.80 -5.40 -1.10 -7.75 -1.30 -15.15 -1.30 -12.70 0 -20.20 1.25 -29.60 5 -10.35 4.15 -19.15 12.70 -22.10 21.50 -3.75 11 -2.10 20.65 4.95 29.25 6.95 8.40 27.20 17.30 53.25 23.35 6.95 1.60 29.35 7.15 36 8.95 6.50 1.70 9.85 2.75 16 5.05 2.35 0.85 5.25 1.90 6.45 2.35 1.20 0.40 5.05 2.10 8.50 3.75 3.45 1.65 7.30 3.45 8.55 4.05 4 1.90 13.10 7.90 18 11.85 8.85 7.15 18.30 17.55 21.85 24 5.70 10.35 8.45 17.75 10.45 27.75 1.30 6.60 1.40 7.80 1.35 20.25 0 12.15 -0.10 13.80 -1.30 20 -2.70 14.25 -6.65 24.35 -13.75 35.20 -3.50 5.35 -5.50 7.70 -11.55 13.70 -14.40 14.25 -29.50 22.80 -51.05 28.80 -12.05 3.35 -28.65 5.85 -43.25 6.50 -13.90 0.65 -15.75 0.65 -23.50 0.30z"/>
  <path d="M497.75 626.40 c-0.15 -0.35 -0.20 -78.25 -0.15 -173.15 l0.15 -172.50 37.90 -0.15 37.85 -0.10 0 141.75 0 141.75 73.50 0 73.50 0 -0.10 31.40 -0.15 31.35 -111.15 0.15 c-88.65 0.10 -111.20 0 -111.35 -0.50z"/>
 </g>
 <g fill="#ffffff">
  <path d="M0 479 l0 -479 486 0 486 0 0 479 0 479 -486 0 -486 0 0 -479z m819 -25.50 l0 -370.50 -370.35 0.10 -370.40 0.15 -0.15 370 c-0.05 203.50 0 370.25 0.10 370.50 0.10 0.35 123.95 0.45 370.50 0.35 l370.30 -0.10 0 -370.50z"/>
  <path d="M120.50 453.75 l0 -328.25 328.25 0 328.25 0 0 328.25 0 328.25 -328.25 0 -328.25 0 0 -328.25z m207.50 176 c15.15 -0.55 31.90 -3.05 44.50 -6.55 21.55 -6 36.65 -14.55 51.05 -28.80 6.05 -6 8.05 -8.35 11.55 -13.70 7.10 -10.90 11.05 -21 13.75 -35.20 1.15 -6.05 1.30 -8 1.30 -18.50 0 -10.80 -0.10 -12.30 -1.35 -18.75 -1.95 -10 -4.75 -17.40 -10.45 -27.75 -3.55 -6.45 -13 -16.85 -21.85 -24 -4.90 -3.95 -14 -9.95 -18 -11.85 -1.25 -0.60 -5.10 -2.40 -8.55 -4.05 -3.45 -1.65 -7.30 -3.35 -8.50 -3.75 -1.20 -0.45 -4.10 -1.50 -6.45 -2.35 -6.15 -2.30 -9.50 -3.35 -16 -5.05 -6.65 -1.80 -29.05 -7.35 -36 -8.95 -20.45 -4.75 -35.95 -10.65 -46.80 -17.80 -12.15 -8 -16.60 -22.60 -11.40 -37.80 2.95 -8.80 11.75 -17.30 22.10 -21.50 9.80 -3.90 16.85 -5.05 31.10 -5 9 0 11 0.15 16.65 1.30 20.90 4.25 33.95 14.45 39.35 30.80 0.80 2.35 1.55 5.65 1.75 7.40 l0.35 3.10 34.95 0 34.95 0 -0.20 -1.10 c-0.15 -0.65 -0.35 -3.45 -0.55 -6.20 -0.60 -10.40 -3.40 -22.40 -7.20 -30.85 -0.50 -1.15 -1.40 -3.15 -1.95 -4.50 -4.20 -9.60 -15.05 -23.10 -26.10 -32.40 -6.15 -5.20 -20.95 -13.95 -28.75 -16.95 -2.20 -0.85 -4.65 -1.85 -5.50 -2.20 -2.65 -1.15 -13.95 -4.25 -21.10 -5.75 -11.85 -2.55 -20.05 -3.25 -37.15 -3.20 -13.85 0 -16.10 0.15 -24.75 1.40 -10.85 1.55 -25.15 4.95 -31.90 7.55 -2.55 1 -5.85 2.25 -7.35 2.85 -4.80 1.80 -15.10 7.05 -19.75 10.05 -13.40 8.70 -24.55 19.80 -32 31.80 -3.60 5.90 -7.25 13.60 -8.70 18.50 -0.60 2.05 -1.35 4.45 -1.60 5.25 -0.30 0.85 -1.05 4.65 -1.75 8.50 -1.70 9.50 -1.75 25 -0.20 34.35 2.65 15.75 9.45 29.10 20.60 40.45 11 11.15 27.45 21.30 46.40 28.50 8.90 3.45 14.20 4.95 44.70 12.70 8.20 2.10 17 4.35 19.50 5 2.50 0.65 6.25 1.65 8.30 2.20 18.25 4.80 35.45 13.25 41.10 20.15 2.40 2.95 4.55 7 5.90 11.10 1 3.10 1.10 4.10 0.85 9.75 -0.50 10.85 -2.95 16.55 -10.35 24.05 -11.65 11.75 -27.10 17 -50.35 17 -21.10 0 -37.55 -5.15 -49.90 -15.70 -9 -7.65 -14.40 -18.05 -16.30 -31.40 l-0.60 -4.40 -35.20 0 c-33.15 0 -35.15 0.05 -35.15 0.90 0.05 0.45 0.35 4.25 0.75 8.35 2.35 25.70 9.95 45.40 23.65 61.30 5.15 6 13.30 13.25 19.80 17.60 5.30 3.60 16.20 9.30 21.95 11.55 1.85 0.70 4.85 1.90 6.65 2.60 10.35 4 25.70 7.40 40.95 8.95 8.55 0.90 22.85 1.70 25.75 1.45 0.95 -0.10 5.25 -0.30 9.50 -0.45z m390.90 -34.35 l0.10 -29.90 -73.60 0 -73.65 0 0.15 -141.75 0.10 -141.75 -36.35 0.10 -36.40 0.15 -0.15 171 c-0.05 94.05 0 171.30 0.15 171.65 0.15 0.50 22.40 0.60 109.85 0.50 l109.65 -0.15 0.15 -29.85z"/>
 </g>
</svg>